<svg xmlns="http://www.w3.org/2000/svg" xmlns:xlink="http://www.w3.org/1999/xlink" version="1.1" preserveAspectRatio="none" x="0px" y="0px" viewBox="0 0 100 125"><defs><g id="a"><path fill="#dee5ea" stroke="none" d=" M 78.7 16.15 Q 73 19.4 67.8 22.55 54.5 30.55 49.1 33.35 45.95 35 41.2 37.8 34.4 41.85 33.75 42.2 29.65 44.15 26.25 46.1 21.55 48.8 21.35 49.8 22.15 50.6 24.95 52.35 27.8 54.15 30.6 55.6 32.65 56.7 40.2 61.25 47.4 65.65 48.05 65.95 50.4 67.15 64.1 75.25 73.45 80.8 78.7 83.9 L 78.7 16.15 Z"/></g></defs><g transform="matrix( 1, 0, 0, 1, 0,0) "><use xlink:href="#a"/></g></svg>