<?xml version="1.0" encoding="utf-8"?>
<!-- Generator: Adobe Illustrator 18.1.1, SVG Export Plug-In . SVG Version: 6.00 Build 0)  -->
<svg version="1.1" id="Calque_1" xmlns="http://www.w3.org/2000/svg" xmlns:xlink="http://www.w3.org/1999/xlink" x="0px" y="0px"
	 viewBox="0 0 64 64" enable-background="new 0 0 64 64" xml:space="preserve">
<path fill="none" stroke="#000000" stroke-linecap="round" stroke-linejoin="round" stroke-miterlimit="10" d="M32.3,9.2
	c1.4,1.6,1.5,4.4,0.5,4.7"/>
<path fill="none" stroke="#000000" stroke-linecap="round" stroke-linejoin="round" stroke-miterlimit="10" d="M31.8,15
	c-1.8-2.8-1.8-6,0-7.2"/>
<polygon fill="none" stroke="#000000" stroke-linecap="round" stroke-linejoin="round" stroke-miterlimit="10" points="30.5,16.8 
	30.5,27.5 33.5,27.5 33.5,15.3 "/>
<path fill="none" stroke="#000000" stroke-linecap="round" stroke-linejoin="round" stroke-miterlimit="10" d="M54.5,34l-6.4,4.4
	c-0.9,0.7-2.2,0.7-3.2,0.1l-6.4-3.8c-0.8-0.5-1.9-0.4-2.6,0.1l-5.1,3.5c-1,0.7-2.3,0.8-3.4,0.3l-7.4-3.3c-1.1-0.5-2.5-0.5-3.6,0.1
	l-4.9,2.9c-0.7,0.4-1.5,0.4-2.1,0L8.5,38"/>
<rect x="7.5" y="51.5" fill="none" stroke="#000000" stroke-linecap="round" stroke-linejoin="round" stroke-miterlimit="10" width="48" height="3"/>
<path fill="none" stroke="#000000" stroke-linecap="round" stroke-linejoin="round" stroke-miterlimit="10" d="M8.5,29V50
	c0,0.9,0.7,1.5,1.5,1.5H53c0.9,0,1.5-0.7,1.5-1.5V29c0-0.9-0.7-1.5-1.5-1.5H10C9.2,27.5,8.5,28.2,8.5,29z"/>
</svg>
