<?xml version="1.0" encoding="utf-8"?>
<!-- Generator: Adobe Illustrator 18.1.1, SVG Export Plug-In . SVG Version: 6.00 Build 0)  -->
<svg version="1.1" id="Calque_1" xmlns="http://www.w3.org/2000/svg" xmlns:xlink="http://www.w3.org/1999/xlink" x="0px" y="0px"
	 viewBox="0 0 64 64" enable-background="new 0 0 64 64" xml:space="preserve">
<path fill="none" stroke="#EBEEF0" stroke-linecap="round" stroke-linejoin="round" stroke-miterlimit="10" d="M18.5,16.3v31.6
	c0,1.5,1.2,2.6,2.6,2.6h17.6c1.5,0,2.8-1.2,2.8-2.8V16.1c0-0.3-0.3-0.6-0.6-0.6H19.3C18.8,15.5,18.5,15.8,18.5,16.3z"/>
<line fill="none" stroke="#EBEEF0" stroke-linecap="round" stroke-linejoin="round" stroke-miterlimit="10" x1="24.5" y1="26" x2="24.5" y2="40"/>
<line fill="none" stroke="#EBEEF0" stroke-linecap="round" stroke-linejoin="round" stroke-miterlimit="10" x1="30.5" y1="26" x2="30.5" y2="38"/>
<line fill="none" stroke="#EBEEF0" stroke-linecap="round" stroke-linejoin="round" stroke-miterlimit="10" x1="36.5" y1="26" x2="36.5" y2="40"/>
<path fill="none" stroke="#EBEEF0" stroke-linecap="round" stroke-linejoin="round" stroke-miterlimit="10" d="M42,24.5h5.8
	c0.6,0,1.1,0.5,1.1,1.2l0,15.8c0,0.7-0.9,1.1-1.6,1.1h-2.4c-0.6,0-1.5-0.3-1.6-0.8l-0.2-8.2"/>
<path fill="none" stroke="#EBEEF0" stroke-linecap="round" stroke-linejoin="round" stroke-miterlimit="10" d="M25.8,14.6"/>
<path fill="none" stroke="#EBEEF0" stroke-linecap="round" stroke-linejoin="round" stroke-miterlimit="10" d="M18.5,15.2"/>
<path fill="none" stroke="#EBEEF0" stroke-linecap="round" stroke-linejoin="round" stroke-miterlimit="10" d="M18.8,15.5
	c0-2.8,2.4-3.1,4.3-0.8"/>
<path fill="none" stroke="#EBEEF0" stroke-linecap="round" stroke-linejoin="round" stroke-miterlimit="10" d="M37.1,15.2
	c0-2.4,4.4-3.3,3.8,0"/>
<path fill="none" stroke="#EBEEF0" stroke-linecap="round" stroke-linejoin="round" stroke-miterlimit="10" d="M23.5,15.2
	c0.6-1.9,2.1-2.9,4-0.6"/>
<path fill="none" stroke="#EBEEF0" stroke-linecap="round" stroke-linejoin="round" stroke-miterlimit="10" d="M27.5,15.2
	c0.6-1.9,3.3-2.9,4.6-0.4"/>
<path fill="none" stroke="#EBEEF0" stroke-linecap="round" stroke-linejoin="round" stroke-miterlimit="10" d="M32.5,15.2
	c0.6-1.9,2.9-3,4-0.2"/>
</svg>
