<?xml version="1.0" encoding="utf-8"?>
<!-- Generator: Adobe Illustrator 18.1.1, SVG Export Plug-In . SVG Version: 6.00 Build 0)  -->
<svg version="1.1" id="Calque_1" xmlns="http://www.w3.org/2000/svg" xmlns:xlink="http://www.w3.org/1999/xlink" x="0px" y="0px"
	 viewBox="0 0 64 64" enable-background="new 0 0 64 64" xml:space="preserve">
<path fill="none" stroke="#046AA3" stroke-miterlimit="10" d="M18.3,30.1c4.4,0,7.9,3.5,7.9,7.9c0,3.9-2.3,8.5-6.1,9.1v2.4h0l0,0.6
	h5.2c1.2,0,2.3,0.8,2.7,2l1,2.9"/>
<path fill="none" stroke="#046AA3" stroke-miterlimit="10" d="M7.5,55l1-2.9c0.4-1.2,1.5-2,2.7-2h5.2l0-0.6v-2.4
	c-3.8-0.6-6.1-5.2-6.1-9.1c0-4.4,3.5-7.9,7.9-7.9"/>
<line fill="none" stroke="#046AA3" stroke-linecap="round" stroke-linejoin="round" stroke-miterlimit="10" x1="11" y1="38.5" x2="32" y2="38.5"/>
<path fill="none" stroke="#046AA3" stroke-linecap="round" stroke-linejoin="round" stroke-miterlimit="10" d="M15.2,41
	c0,1.7,1.4,3,3,3s3-1.4,3-3"/>
<line fill="none" stroke="#046AA3" stroke-linecap="round" stroke-linejoin="round" stroke-miterlimit="10" x1="18.5" y1="39" x2="18.5" y2="41"/>
<path fill="none" stroke="#046AA3" stroke-miterlimit="10" d="M18.3,53.8c2,0,3.6-1.6,3.6-3.6"/>
<path fill="none" stroke="#046AA3" stroke-miterlimit="10" d="M14.6,50.1c0,2,1.6,3.6,3.6,3.6"/>
<path fill="none" stroke="#046AA3" stroke-miterlimit="10" d="M47,29.5c4,0,7.3,3.5,7.3,7.9c0,3.9-2.3,8.5-6.1,9.1v2.4h0l0,0.6H54
	c1.2,0,2.3,0.8,2.7,2l1,2.9"/>
<path fill="none" stroke="#046AA3" stroke-miterlimit="10" d="M36.3,54.4l1-2.9c0.4-1.2,1.5-2,2.7-2h5.8l0-0.6v-2.4
	c-3.8-0.6-6.1-5.2-6.1-9.1c0-4.4,3.3-7.9,7.3-7.9"/>
<path fill="none" stroke="#046AA3" stroke-linecap="round" stroke-linejoin="round" stroke-miterlimit="10" d="M43.9,40.4
	c0,1.7,1.4,3,3,3c1,0,1.9-0.5,2.4-1.2"/>
<line fill="none" stroke="#046AA3" stroke-linecap="round" stroke-linejoin="round" stroke-miterlimit="10" x1="47.5" y1="38" x2="47.5" y2="40"/>
<path fill="none" stroke="#046AA3" stroke-miterlimit="10" d="M43.3,49.5c0,2,1.6,3.6,3.6,3.6c2,0,3.6-1.6,3.6-3.6"/>
<path fill="none" stroke="#046AA3" stroke-miterlimit="10" d="M54.3,38.6c0,0-0.9,4.2,3.6,7.9"/>
<path fill="none" stroke="#046AA3" stroke-miterlimit="10" d="M39.6,38.6c0,0,0.9,4.2-3.6,7.9"/>
<path fill="none" stroke="#046AA3" stroke-miterlimit="10" d="M40.9,34.4c0,0,5-2.1,7.9-0.6c2.9,1.5,4.9,1.8,4.9,1.8"/>
<path fill="none" stroke="#046AA3" stroke-miterlimit="10" d="M5.3,40V16.9c0-3.8,5.3-6.9,11.9-6.9h29.9c6.6,0,11.9,3.1,11.9,6.9
	l-0.2,22.7 M47.2,36.6"/>
<path fill="none" stroke="#046AA3" stroke-miterlimit="10" d="M28,30.8V18c0-0.8,0.9-1.3,1.6-0.8l8.5,6.7c0.7,0.5,0.6,1.6-0.1,2.1
	l-6.6,4.5c-0.6,0.4-1.4,0-1.4-0.7l0.2-9.4"/>
</svg>
