<?xml version="1.0" encoding="utf-8"?>
<!-- Generator: Adobe Illustrator 18.1.1, SVG Export Plug-In . SVG Version: 6.00 Build 0)  -->
<svg version="1.1" id="Calque_1" xmlns="http://www.w3.org/2000/svg" xmlns:xlink="http://www.w3.org/1999/xlink" x="0px" y="0px"
	 viewBox="0 0 64 64" enable-background="new 0 0 64 64" xml:space="preserve">
<path id="XMLID_4_" fill="#FFFFFF" stroke="#000000" stroke-miterlimit="10" d="M61.4,46.4L8.2,52.5c-0.5,0.1-1-0.3-1.1-0.8L2,20.5
	c-0.1-0.6,0.3-1.1,0.9-1.2l54.5-5.6c0.5-0.1,1,0.3,1.1,0.9l3.8,30.6C62.3,45.8,61.9,46.3,61.4,46.4z"/>
<path id="XMLID_3_" fill="#FFFFFF" stroke="#000000" stroke-miterlimit="10" d="M58.7,44.2l-48.5,5.9c-0.5,0.1-1.1-0.3-1.1-0.9
	L4.9,22.6c-0.1-0.6,0.3-1.1,0.9-1.2L55.4,16c0.6-0.1,1.1,0.3,1.1,0.9l3.1,26.2C59.7,43.7,59.3,44.1,58.7,44.2z"/>
<g>
	<path d="M32,43.3l-1-0.2L32,22.3l1,0.2L32,43.3z"/>
	<path d="M43,32c-0.8,1.5-2,3.4-3.5,5.6c0.6,0,1.3,0,2.1-0.1c0.8-0.1,1.6-0.2,2.3-0.4c0.1,0.1,0.2,0.3,0.3,0.7c0,0.1,0,0.2,0,0.2
		c-0.5,0.3-1.3,0.5-2.6,0.6c-0.6,0.1-1.3,0.1-2.1,0.1c-0.7,0-1.1-0.1-1.4-0.2c-0.1-0.4,0.3-1.3,1.1-2.5c1.3-1.9,2.2-3.5,2.8-4.6
		c0.3-0.5,0.4-1,0.4-1.4c-0.1-0.7-0.7-1-1.8-0.9c-1.3,0.1-2.8,0.8-4.5,2.1c-0.2-0.2-0.4-0.5-0.5-0.8c0.6-0.6,1.3-1.1,2.2-1.6
		c1-0.5,1.9-0.7,2.6-0.8c1.9-0.2,3,0.4,3.2,1.8C43.6,30.3,43.4,31.1,43,32z"/>
	<path d="M53.8,35.6c-0.9,1.1-2.1,1.6-3.5,1.8c-1.4,0.2-2.7-0.2-3.9-1.1c-1.1-0.9-1.8-2.1-2-3.5c-0.2-1.5,0.2-2.8,1-4
		c0.9-1.2,2-1.9,3.6-2.1c0.4,0,0.8,0,1.2,0.1c0.5,0.1,1,0.2,1.3,0.5c0,0.1,0,0.2-0.1,0.4c-0.1,0.2-0.2,0.3-0.3,0.4
		c-0.7-0.3-1.4-0.4-2-0.3c-1.1,0.1-2,0.7-2.7,1.7c-0.6,1-0.9,2.1-0.7,3.3c0.1,1.2,0.7,2.1,1.6,2.8c0.9,0.7,1.9,0.9,2.9,0.8
		c1-0.1,1.8-0.6,2.6-1.4c0.7-1,1-2,0.9-3.1c-0.1-0.9-0.3-1.5-0.6-2c-0.2-0.4-0.7-0.8-1.3-1.5c0.1-0.3,0.3-0.5,0.6-0.7
		c1.4,0.9,2.3,2.3,2.5,4.2C55.1,33.3,54.7,34.5,53.8,35.6z"/>
</g>
<path fill="none" stroke="#000000" stroke-linecap="round" stroke-linejoin="round" stroke-miterlimit="10" d="M15.5,32.5"/>
<path fill="none" stroke="#000000" stroke-width="0.8" stroke-linecap="round" stroke-linejoin="round" stroke-miterlimit="10" d="
	M11.9,27.8c0.5,2.7,2.1,6.5,4.5,6c2.6-0.6,1.6-5.8,1.1-8.5"/>
<line fill="none" stroke="#000000" stroke-width="0.8" stroke-linecap="round" stroke-linejoin="round" stroke-miterlimit="10" x1="16.1" y1="29.4" x2="15.4" y2="25.3"/>
<line fill="none" stroke="#000000" stroke-width="0.8" stroke-linecap="round" stroke-linejoin="round" stroke-miterlimit="10" x1="14.2" y1="29.5" x2="13.5" y2="25.5"/>
<line fill="none" stroke="#000000" stroke-width="0.8" stroke-linecap="round" stroke-linejoin="round" stroke-miterlimit="10" x1="12" y1="28.3" x2="11.5" y2="25.7"/>
<line stroke="#000000" stroke-width="0.8" stroke-miterlimit="10" x1="16" y1="33.9" x2="18.1" y2="45.3"/>
<polyline fill="none" stroke="#000000" stroke-width="0.8" stroke-linecap="round" stroke-linejoin="round" stroke-miterlimit="10" points="
	23.5,43.7 22.3,36.3 20,23 25.7,32.1 "/>
<line fill="none" stroke="#000000" stroke-width="0.8" stroke-linecap="round" stroke-linejoin="round" stroke-miterlimit="10" x1="22.3" y1="36.3" x2="25.7" y2="32.1"/>
<line stroke="#000000" stroke-width="0.5" stroke-miterlimit="10" x1="22.6" y1="30.3" x2="23.2" y2="33.4"/>
<path fill="none" stroke="#000000" stroke-miterlimit="10" d="M5.1,21.5"/>
</svg>
