<?xml version="1.0" encoding="utf-8"?>
<!-- Generator: Adobe Illustrator 18.1.1, SVG Export Plug-In . SVG Version: 6.00 Build 0)  -->
<svg version="1.1" id="Calque_1" xmlns="http://www.w3.org/2000/svg" xmlns:xlink="http://www.w3.org/1999/xlink" x="0px" y="0px"
	 viewBox="0 0 64 64" enable-background="new 0 0 64 64" xml:space="preserve">
<polyline fill="none" stroke="#000000" stroke-linecap="round" stroke-linejoin="round" stroke-miterlimit="10" points="12,26.2 
	19,22.2 21.5,31.2 27,33.5 29.9,25.2 34,29.5 37,35.2 "/>
<polygon stroke="#000000" stroke-miterlimit="10" points="47.7,51.5 46.5,53.5 48.8,53.5 "/>
<polygon stroke="#000000" stroke-miterlimit="10" points="47.7,48.3 46.9,49.4 47.7,50.3 48.6,49.3 "/>
<path fill="none" stroke="#000000" stroke-miterlimit="10" d="M38.3,53l0.8-2.5c0.3-1,1.3-2.7,2.4-2.7h5.1l0-0.5v-2.1
	c-3.3-0.5-5.3-4.5-5.3-8c0-3.8,2.9-6.9,6.4-6.9c3.5,0,6.4,3.1,6.4,6.9c0,3.4-2,7.5-5.3,8v2.1h0l0,0.5h5.1c1.1,0,2,0.7,2.4,1.7
	l0.8,2.5"/>
<path fill="none" stroke="#000000" stroke-linecap="round" stroke-linejoin="round" stroke-miterlimit="10" d="M45,39.8
	c0,1.5,1.2,2.7,2.7,2.7c0.9,0,1.6-0.4,2.1-1.1"/>
<line fill="none" stroke="#000000" stroke-linecap="round" stroke-linejoin="round" stroke-miterlimit="10" x1="47.4" y1="36.6" x2="47.5" y2="39"/>
<path fill="none" stroke="#000000" stroke-miterlimit="10" d="M42.4,34.5c0,0,4.4-1.9,6.9-0.5c2.5,1.3,4.2,1.6,4.2,1.6"/>
<path fill="none" stroke="#000000" stroke-linecap="round" stroke-linejoin="round" stroke-miterlimit="10" d="M37.5,43H9.6
	c-1.3,0-2.4-1.1-2.4-2.4V17.4c0-1.3,1.1-2.4,2.4-2.4h37.1c1.3,0,2.4,1.1,2.4,2.4v10.3"/>
<polyline fill="none" stroke="#000000" stroke-linecap="round" stroke-linejoin="round" stroke-miterlimit="10" points="36,51 
	28.2,43.2 20.4,51 "/>
<line fill="none" stroke="#000000" stroke-linecap="round" stroke-linejoin="round" stroke-miterlimit="10" x1="20" y1="51.5" x2="23" y2="51.5"/>
<line fill="none" stroke="#000000" stroke-linecap="round" stroke-linejoin="round" stroke-miterlimit="10" x1="33" y1="51.5" x2="36" y2="51.5"/>
<line fill="none" stroke="#000000" stroke-miterlimit="10" x1="11" y1="39.5" x2="39" y2="39.5"/>
<line fill="none" stroke="#000000" stroke-linecap="round" stroke-linejoin="round" stroke-miterlimit="10" x1="27.5" y1="11" x2="27.5" y2="14"/>
<line fill="none" stroke="#000000" stroke-linecap="round" stroke-linejoin="round" stroke-miterlimit="10" x1="11.5" y1="39" x2="11.5" y2="20"/>
</svg>
