<?xml version="1.0" encoding="utf-8"?>
<!-- Generator: Adobe Illustrator 18.1.1, SVG Export Plug-In . SVG Version: 6.00 Build 0)  -->
<svg version="1.1" id="Calque_1" xmlns="http://www.w3.org/2000/svg" xmlns:xlink="http://www.w3.org/1999/xlink" x="0px" y="0px"
	 viewBox="0 0 64 64" enable-background="new 0 0 64 64" xml:space="preserve">
<path fill="none" d="M36.3,23.2"/>
<polyline fill="none" points="37,18.8 31.9,24.6 36.6,26.9 41.5,21.8 "/>
<ellipse fill="none" stroke="#046AA3" stroke-linecap="round" stroke-linejoin="round" stroke-miterlimit="10" cx="31.8" cy="42.8" rx="10.4" ry="10.1"/>
<ellipse fill="none" stroke="#046AA3" stroke-linecap="round" stroke-linejoin="round" stroke-miterlimit="10" cx="31.9" cy="42.7" rx="6.5" ry="6.3"/>
<path fill="none" stroke="#046AA3" stroke-linecap="round" stroke-linejoin="round" stroke-miterlimit="10" d="M30.8,57.9"/>
<ellipse fill="none" stroke="#046AA3" stroke-linecap="round" stroke-linejoin="round" stroke-miterlimit="10" cx="31.9" cy="19.4" rx="5.2" ry="5.2"/>
<ellipse fill="none" stroke="#046AA3" stroke-linecap="round" stroke-linejoin="round" stroke-miterlimit="10" cx="31.9" cy="19.3" rx="1.4" ry="1.5"/>
<ellipse fill="none" stroke="#046AA3" stroke-linecap="round" stroke-linejoin="round" stroke-miterlimit="10" cx="31.9" cy="42.6" rx="2.4" ry="2.5"/>
<path fill="none" stroke="#046AA3" stroke-linecap="round" stroke-linejoin="round" stroke-miterlimit="10" d="M31.4,25"/>
<path fill="none" stroke="#046AA3" stroke-linecap="round" stroke-linejoin="round" stroke-miterlimit="10" d="M18,59h27.9
	c0.9,0,1.6-0.7,1.6-1.6V5.2c0-0.9-0.7-1.6-1.5-1.6H18c-0.8,0-1.5,0.7-1.5,1.6v52.1C16.5,58.3,17.2,59,18,59z"/>
</svg>
